<?xml version="1.0" encoding="UTF-8"?>
<svg version="1.1" xmlns="http://www.w3.org/2000/svg" width="192" height="192">
<path d="M0 0 C2.484375 1.4609375 2.484375 1.4609375 4.75 3.375 C5.88695312 4.31472656 5.88695312 4.31472656 7.046875 5.2734375 C10.98239758 8.75243946 10.98239758 8.75243946 11.27415466 12.85571289 C11.29530284 14.56126343 11.30511417 16.26697509 11.30639648 17.97265625 C11.31472 18.90298172 11.32304352 19.83330719 11.33161926 20.79182434 C11.35580431 23.88209167 11.36450462 26.97214792 11.37109375 30.0625 C11.38005831 32.21044987 11.38918012 34.35839909 11.39845276 36.50634766 C11.41497165 41.01905841 11.42264732 45.53169476 11.42553711 50.04443359 C11.43090356 55.81013145 11.46849949 61.57512289 11.51428127 67.34062195 C11.54412809 71.7829234 11.55126244 76.22505698 11.55226326 80.66744995 C11.55645554 82.79160779 11.56884975 84.91576659 11.58978081 87.03982544 C11.79745727 109.95193861 11.79745727 109.95193861 4.33421326 117.73779297 C3.89392288 118.15432129 3.45363251 118.57084961 3 119 C3.99 119.33 4.98 119.66 6 120 C5.00198407 123.25822848 3.446168 124.52047545 0.59375 126.140625 C-0.76467079 126.85558331 -2.12955331 127.5583727 -3.5 128.25 C-4.18964844 128.61351562 -4.87929687 128.97703125 -5.58984375 129.3515625 C-10.69754464 132 -10.69754464 132 -13 132 C-8.28000004 137.65070417 -3.21442388 142.86145571 2.08691406 147.96191406 C3.42754461 149.27182361 4.71848131 150.63220501 6 152 C6 152.66 6 153.32 6 154 C4.49609375 155.48046875 4.49609375 155.48046875 2.4375 157.1875 C-1.58675247 160.60201725 -5.32190005 164.21845349 -9 168 C-13.15704633 166.37506343 -15.89595505 163.32777176 -18.9375 160.1875 C-19.44990234 159.66607422 -19.96230469 159.14464844 -20.49023438 158.60742188 C-21.50434467 157.5752715 -22.51659556 156.54129049 -23.52685547 155.50537109 C-25.66664251 153.31877399 -27.83270846 151.15930888 -30 149 C-30.28721924 149.50974365 -30.57443848 150.0194873 -30.87036133 150.54467773 C-32.17502394 152.8477503 -33.49352635 155.14259592 -34.8125 157.4375 C-35.26431641 158.23994141 -35.71613281 159.04238281 -36.18164062 159.86914062 C-36.84389648 161.01479492 -36.84389648 161.01479492 -37.51953125 162.18359375 C-38.12438354 163.24404907 -38.12438354 163.24404907 -38.74145508 164.32592773 C-40 166 -40 166 -43 167 C-44.65 161.06 -46.3 155.12 -48 149 C-50.9306913 149 -52.70318072 150.36566437 -55.2578125 151.7890625 C-56.34682861 152.39419678 -57.43584473 152.99933105 -58.55786133 153.62280273 C-59.74705223 154.289944 -60.93609488 154.95734958 -62.125 155.625 C-63.34459593 156.30615915 -64.56424168 156.98722912 -65.78393555 157.66821289 C-73.84066216 162.17717966 -81.84247745 166.7768028 -89.8125 171.4375 C-90.80185547 172.01532227 -91.79121094 172.59314453 -92.81054688 173.18847656 C-97.02038957 175.65204577 -101.22119998 178.1273764 -105.39453125 180.65234375 C-106.35879028 181.22674194 -106.35879028 181.22674194 -107.3425293 181.81274414 C-108.96563922 182.78002962 -110.58092665 183.76041087 -112.1953125 184.7421875 C-115.46287093 186.20758279 -117.45426915 186.43618118 -121 186 C-123.5078125 184.92578125 -123.5078125 184.92578125 -126.125 183.3125 C-127.67574219 182.36117187 -127.67574219 182.36117187 -129.2578125 181.390625 C-130.50697375 180.59652028 -131.75418379 179.79934229 -133 179 C-133.76280273 178.51208984 -134.52560547 178.02417969 -135.31152344 177.52148438 C-140.45544259 174.22115552 -145.57399532 170.88352737 -150.6796875 167.52441406 C-152.7197507 166.18412002 -154.76479452 164.85200832 -156.8125 163.5234375 C-158.3903125 162.49089844 -158.3903125 162.49089844 -160 161.4375 C-160.886875 160.85871094 -161.77375 160.27992188 -162.6875 159.68359375 C-168.5433966 155.42026363 -168.5433966 155.42026363 -169.70703125 151.80078125 C-170.12990096 141.82418844 -164.87969931 134.30136369 -160 126 C-159.15837346 124.53357384 -158.3185236 123.06612654 -157.48046875 121.59765625 C-155.70421793 118.49730344 -153.91085405 115.40769233 -152.10546875 112.32421875 C-149.77404114 108.33897057 -147.46988408 104.33888199 -145.17578125 100.33203125 C-144.5086901 99.16850183 -143.84153501 98.00500907 -143.17431641 96.84155273 C-141.88145499 94.58579711 -140.59065451 92.32885862 -139.30224609 90.07055664 C-130.61665315 74.94700945 -123.62137441 67.15289152 -108.3125 58.625 C-107.07082138 57.92547143 -105.82961941 57.22509619 -104.58886719 56.52392578 C-102.01309517 55.06924848 -99.43532817 53.61820727 -96.85595703 52.16992188 C-91.38893653 49.09733099 -85.94318256 45.98760653 -80.4989624 42.87484741 C-78.74468428 41.87196111 -76.98979118 40.87015693 -75.23486328 39.8684082 C-66.70854342 34.99755577 -58.22488944 30.05599915 -49.75195312 25.09301758 C-41.82490454 20.45893728 -33.84724024 15.91869747 -25.83691406 11.43017578 C-21.89206991 9.21716384 -17.95798723 7.00375128 -14.10546875 4.6328125 C-13.06003906 3.99085937 -12.01460937 3.34890625 -10.9375 2.6875 C-10.10089844 2.15511719 -9.26429688 1.62273438 -8.40234375 1.07421875 C-5.33829105 -0.29588612 -3.32631036 -0.42176746 0 0 Z M-132 134 C-132.845625 134.9075 -133.69125 135.815 -134.5625 136.75 C-135.03816406 137.26046875 -135.51382813 137.7709375 -136.00390625 138.296875 C-137.23892732 139.99606115 -137.23892732 139.99606115 -136.65234375 142.203125 C-136.32943359 143.09257812 -136.32943359 143.09257812 -136 144 C-135.13619741 142.71475739 -134.28419631 141.42157581 -133.4375 140.125 C-132.96183594 139.40570313 -132.48617187 138.68640625 -131.99609375 137.9453125 C-131.50302734 136.98238281 -131.50302734 136.98238281 -131 136 C-131.33 135.34 -131.66 134.68 -132 134 Z " fill="#F6C144" transform="translate(175,3)"/>
<path d="M0 0 C7.15287501 1.44079008 13.92323921 3.52405505 20.82421875 5.87890625 C22.48176933 6.43710304 22.48176933 6.43710304 24.17280579 7.00657654 C27.67919647 8.18751726 31.18357186 9.37427421 34.6875 10.5625 C39.31466841 12.13150971 43.9437981 13.69452431 48.57421875 15.25390625 C49.63058029 15.6143251 50.68694183 15.97474396 51.77531433 16.34608459 C56.50016798 17.93677597 61.02193748 19.42100715 66 20 C65.00198407 23.25822848 63.446168 24.52047545 60.59375 26.140625 C59.23532921 26.85558331 57.87044669 27.5583727 56.5 28.25 C55.81035156 28.61351562 55.12070313 28.97703125 54.41015625 29.3515625 C49.30245536 32 49.30245536 32 47 32 C51.71999996 37.65070417 56.78557612 42.86145571 62.08691406 47.96191406 C63.42754461 49.27182361 64.71848131 50.63220501 66 52 C66 52.66 66 53.32 66 54 C64.49609375 55.48046875 64.49609375 55.48046875 62.4375 57.1875 C58.41324753 60.60201725 54.67809995 64.21845349 51 68 C46.84295367 66.37506343 44.10404495 63.32777176 41.0625 60.1875 C40.55009766 59.66607422 40.03769531 59.14464844 39.50976562 58.60742188 C38.49565533 57.5752715 37.48340444 56.54129049 36.47314453 55.50537109 C34.33335749 53.31877399 32.16729154 51.15930888 30 49 C29.71278076 49.50974365 29.42556152 50.0194873 29.12963867 50.54467773 C27.82497606 52.8477503 26.50647365 55.14259592 25.1875 57.4375 C24.73568359 58.23994141 24.28386719 59.04238281 23.81835938 59.86914062 C23.37685547 60.63291016 22.93535156 61.39667969 22.48046875 62.18359375 C22.07723389 62.89056396 21.67399902 63.59753418 21.25854492 64.32592773 C20 66 20 66 17 67 C16.54007684 65.18790277 16.08215964 63.37529639 15.625 61.5625 C15.36976563 60.55316406 15.11453125 59.54382813 14.8515625 58.50390625 C14.22625305 55.93095866 13.65277867 53.36646299 13.10546875 50.77734375 C11.92549126 45.4263485 10.31570885 40.22889406 8.6875 35 C8.06473405 32.9701656 7.44234153 30.9402166 6.8203125 28.91015625 C5.94520185 26.0653565 5.06859694 23.2210666 4.18652344 20.37841797 C3.4709864 18.06700251 2.76562947 15.75271406 2.0625 13.4375 C1.85133545 12.76654297 1.6401709 12.09558594 1.42260742 11.40429688 C0.24473733 7.49506857 -0.20732413 4.07737461 0 0 Z " fill="#44453D" transform="translate(115,103)"/>
<path d="M0 0 C0.12375 0.639375 0.2475 1.27875 0.375 1.9375 C0.58125 2.618125 0.7875 3.29875 1 4 C1.99 4.495 1.99 4.495 3 5 C1.35 5.33 -0.3 5.66 -2 6 C-2.09917725 6.61697754 -2.19835449 7.23395508 -2.30053711 7.86962891 C-3.51286411 11.56204266 -7.28592815 12.69040333 -10.5625 14.375 C-12.22410938 15.262911 -13.88419025 16.15368658 -15.54296875 17.046875 C-16.43161621 17.52318359 -17.32026367 17.99949219 -18.23583984 18.49023438 C-23.00955561 21.09760571 -27.6875914 23.8664001 -32.375 26.625 C-42.34442298 32.46980757 -52.35937507 38.23155978 -62.40429688 43.9453125 C-68.31135012 47.30754875 -74.20241821 50.69316132 -80.0625 54.13671875 C-100.62382909 66.18981122 -100.62382909 66.18981122 -110.265625 69.82421875 C-113.46276566 71.19898923 -116.15795376 73.00300005 -119 75 C-119 73.68 -119 72.36 -119 71 C-123.455 71.99 -123.455 71.99 -128 73 C-124.42129507 67.39266873 -119.14320001 64.86083681 -113.5 61.6875 C-111.91614502 60.78052368 -111.91614502 60.78052368 -110.30029297 59.85522461 C-107.45440496 58.22754645 -104.6037398 56.60865566 -101.75085449 54.99328613 C-98.86318874 53.35506984 -95.98266546 51.70441048 -93.1015625 50.0546875 C-89.00271986 47.70812893 -84.90234787 45.36429813 -80.79956055 43.02464294 C-65.97411711 34.56968236 -51.18970418 26.04322114 -36.45751953 17.42675781 C-32.5309829 15.13166512 -28.59949305 12.8451288 -24.66796875 10.55859375 C-22.15727614 9.09187874 -19.65616854 7.60997657 -17.15625 6.125 C-15.72950748 5.2910833 -14.30244904 4.45770674 -12.875 3.625 C-12.25415527 3.24939941 -11.63331055 2.87379883 -10.99365234 2.48681641 C-7.17056011 0.28163719 -4.39807835 -0.38767256 0 0 Z " fill="#F4C246" transform="translate(175,3)"/>
<path d="M0 0 C3.87497244 1.18606571 7.74857638 2.37649887 11.62109375 3.57055664 C12.93161932 3.97402863 14.24247903 4.37641732 15.55371094 4.77758789 C24.79890224 7.6072413 33.92132336 10.67173781 43 14 C43 14.66 43 15.32 43 16 C36.565 19.465 36.565 19.465 30 23 C32.26450859 26.77418099 33.79067288 29.03402211 36.79296875 31.98828125 C37.50517578 32.69404297 38.21738281 33.39980469 38.95117188 34.12695312 C39.68916016 34.84818359 40.42714844 35.56941406 41.1875 36.3125 C41.93708984 37.05306641 42.68667969 37.79363281 43.45898438 38.55664062 C45.30153282 40.37571712 47.14859662 42.18994389 49 44 C47.58208437 46.93446886 46.01667393 49.43332409 44 52 C40.9040964 50.63543881 38.92713685 49.12168778 36.65234375 46.62890625 C36.04712891 45.97212891 35.44191406 45.31535156 34.81835938 44.63867188 C34.19767578 43.95353516 33.57699219 43.26839844 32.9375 42.5625 C31.69696929 41.20931015 30.45609611 39.85643417 29.21484375 38.50390625 C28.66948975 37.90392822 28.12413574 37.3039502 27.56225586 36.68579102 C27.04671143 36.12947998 26.53116699 35.57316895 26 35 C25.47994385 34.43273193 24.9598877 33.86546387 24.42407227 33.28100586 C23.07142032 31.77707514 23.07142032 31.77707514 21 32 C19.1183538 34.79299773 17.45330158 37.68679298 15.75390625 40.59375 C15.17511719 41.3878125 14.59632813 42.181875 14 43 C13.01 43 12.02 43 11 43 C10.80889648 42.28569824 10.61779297 41.57139648 10.42089844 40.83544922 C9.53180121 37.51497598 8.64114139 34.19492522 7.75 30.875 C7.431521 29.68769287 7.11304199 28.50038574 6.78491211 27.27709961 C4.81888749 19.97108234 2.79719654 12.69020935 0.62890625 5.44140625 C0 3 0 3 0 0 Z " fill="#F8F9F7" transform="translate(124,110)"/>
<path d="M0 0 C0.33 0.66 0.66 1.32 1 2 C1.66 2.33 2.32 2.66 3 3 C2.34 3 1.68 3 1 3 C3.26734931 12.57638219 5.81774234 22.04962172 8.5625 31.5 C8.85519775 32.51384766 9.14789551 33.52769531 9.44946289 34.57226562 C10.73345631 38.95469317 12.05562874 43.23730051 13.77734375 47.46875 C14.99764623 50.99320188 15.07224753 51.69015672 14 55 C13.34 53.68 12.68 52.36 12 51 C11.45585449 51.32798584 10.91170898 51.65597168 10.35107422 51.99389648 C7.86481576 53.48496431 5.37010631 54.96128974 2.875 56.4375 C2.0190625 56.95376953 1.163125 57.47003906 0.28125 58.00195312 C-4.13541593 60.60099115 -7.76488308 62.6652958 -13 63 C-12.43969197 59.31613568 -11.45942658 56.86065628 -9.4375 53.75 C-7.05250646 49.64289078 -6.59450845 46.77444953 -6.890625 42.0859375 C-7.03667449 39.30056506 -6.55828534 36.72164103 -6 34 C-6.99 33.67 -7.98 33.34 -9 33 C-8.855625 31.96359375 -8.71125 30.9271875 -8.5625 29.859375 C-8.37485993 28.48960251 -8.1873677 27.11980977 -8 25.75 C-7.90460938 25.06808594 -7.80921875 24.38617188 -7.7109375 23.68359375 C-7.2654774 20.40628012 -7 17.31615847 -7 14 C-8.11375 15.175625 -8.11375 15.175625 -9.25 16.375 C-12.5863658 19.55971281 -14.38409534 21 -19 21 C-19.5625 18.375 -19.5625 18.375 -19 15 C-16.88903814 13.28146053 -14.65659411 11.97003 -12.31640625 10.58203125 C-9.9629842 8.9747194 -8.77835826 7.62362392 -7.25 5.25 C-4.9440938 1.91924659 -3.84125238 0.98775061 0 0 Z " fill="#B18430" transform="translate(114,100)"/>
<path d="M0 0 C0.27556579 3.93299778 -0.18290589 5.83018218 -2.5234375 8.984375 C-6.64657868 14.83454954 -10.10630996 21.02481172 -13.625 27.25 C-14.32959015 28.49098874 -15.03450978 29.73179046 -15.73974609 30.97241211 C-17.15598557 33.46439869 -18.57069381 35.95724494 -19.984375 38.45068359 C-22.34379241 42.60926903 -24.72151589 46.75728103 -27.10205078 50.90380859 C-28.57312596 53.47194079 -30.03332953 56.04600774 -31.4921875 58.62109375 C-32.97447239 61.23202477 -34.4902602 63.79274149 -36.0703125 66.34765625 C-39.81859303 72.54539452 -41.2242663 77.73680475 -40 85 C-38.59492777 88.40271841 -36.68771111 90.49146963 -34 93 C-37.77110589 93 -38.9680326 91.86672657 -42 89.6875 C-42.86625 89.07261719 -43.7325 88.45773438 -44.625 87.82421875 C-49.74046222 83.89507261 -49.74046222 83.89507261 -50.609375 80.8984375 C-51.16952115 70.8469261 -45.91056377 63.35387043 -41 55 C-40.15837346 53.53357384 -39.3185236 52.06612654 -38.48046875 50.59765625 C-36.70500373 47.49892601 -34.91317919 44.41044119 -33.109375 41.328125 C-30.7692593 37.32748042 -28.45063701 33.31497849 -26.140625 29.296875 C-25.80841949 28.71920883 -25.47621399 28.14154266 -25.13394165 27.54637146 C-23.49280886 24.69252869 -21.85277356 21.83806907 -20.21435547 18.98266602 C-18.48710579 15.98196687 -16.74628046 12.98965313 -15 10 C-14.53303711 9.18321777 -14.06607422 8.36643555 -13.58496094 7.52490234 C-13.1624707 6.80898926 -12.73998047 6.09307617 -12.3046875 5.35546875 C-11.77464111 4.44317505 -11.77464111 4.44317505 -11.23388672 3.51245117 C-8.1650769 -0.24917859 -4.58532377 -0.20842381 0 0 Z " fill="#CFA035" transform="translate(56,74)"/>
<path d="M0 0 C4.29 0.33 8.58 0.66 13 1 C10.74865156 5.50269687 10.74865156 5.50269687 7.59375 7.140625 C6.93246094 7.48867187 6.27117187 7.83671875 5.58984375 8.1953125 C4.55537109 8.71738281 4.55537109 8.71738281 3.5 9.25 C2.46552734 9.79527344 2.46552734 9.79527344 1.41015625 10.3515625 C-3.69754464 13 -3.69754464 13 -6 13 C-1.28000004 18.65070417 3.78557612 23.86145571 9.08691406 28.96191406 C10.42754461 30.27182361 11.71848131 31.63220501 13 33 C13 33.66 13 34.32 13 35 C11.49609375 36.48046875 11.49609375 36.48046875 9.4375 38.1875 C5.41324753 41.60201725 1.67809995 45.21845349 -2 49 C-6.11337176 47.37240686 -8.89473572 44.40821481 -11.9375 41.3125 C-12.47020508 40.77592773 -13.00291016 40.23935547 -13.55175781 39.68652344 C-17.13067503 36.02822173 -20.24547842 32.32853391 -23 28 C-19.203125 28.7578125 -19.203125 28.7578125 -17.375 30.9375 C-16.92125 31.618125 -16.4675 32.29875 -16 33 C-15.34 33.66 -14.68 34.32 -14 35 C-13.01 34.01 -12.02 33.02 -11 32 C-10.45730469 32.40992188 -9.91460937 32.81984375 -9.35546875 33.2421875 C-8.64003906 33.78101563 -7.92460937 34.31984375 -7.1875 34.875 C-6.47980469 35.40867188 -5.77210938 35.94234375 -5.04296875 36.4921875 C-3.39543703 37.70814781 -1.70375789 38.86416141 0 40 C0.28875 39.4225 0.5775 38.845 0.875 38.25 C1.91666667 36.16666667 2.95833333 34.08333333 4 32 C3.45996338 31.47043701 2.91992676 30.94087402 2.36352539 30.39526367 C-0.07535399 27.99790384 -2.50648283 25.59283095 -4.9375 23.1875 C-5.78763672 22.35412109 -6.63777344 21.52074219 -7.51367188 20.66210938 C-8.32255859 19.85966797 -9.13144531 19.05722656 -9.96484375 18.23046875 C-10.7137085 17.49207764 -11.46257324 16.75368652 -12.23413086 15.99291992 C-14 14 -14 14 -15 11 C-13.06730041 9.82539808 -11.12866687 8.66055528 -9.1875 7.5 C-8.10855469 6.8503125 -7.02960938 6.200625 -5.91796875 5.53125 C-3 4 -3 4 0 4 C0 2.68 0 1.36 0 0 Z " fill="#4C4E47" transform="translate(168,122)"/>
<path d="M0 0 C1.65 6.27 3.3 12.54 5 19 C7.52560108 16.47439892 9.25901303 14.26951335 11.1875 11.3125 C11.71730469 10.50425781 12.24710938 9.69601563 12.79296875 8.86328125 C13.19128906 8.24839844 13.58960938 7.63351563 14 7 C18.00348746 8.60710067 20.7152015 11.41795967 23.6875 14.4375 C24.18572266 14.92798828 24.68394531 15.41847656 25.19726562 15.92382812 C27.52764849 18.26685893 28.94061236 19.82183707 30 23 C28.68 22.34 27.36 21.68 26 21 C24.68 21.99 23.36 22.98 22 24 C21.4225 23.05125 20.845 22.1025 20.25 21.125 C18.17183449 18.23865902 17.24531925 17.15904259 14 16 C13.75121094 16.67546875 13.50242188 17.3509375 13.24609375 18.046875 C11.75201201 21.58770821 9.95094351 24.90970727 8.0625 28.25 C7.71509766 28.88679688 7.36769531 29.52359375 7.00976562 30.1796875 C4.35333388 34.88222204 4.35333388 34.88222204 1 36 C-0.61627562 29.63187407 -2.20583707 23.26724117 -3.5703125 16.83984375 C-4.02028619 14.78549775 -4.02028619 14.78549775 -5 12 C-5.33585851 8.96075577 -5.42913346 6.03216668 -5 3 C-2.18181818 0 -2.18181818 0 0 0 Z " fill="#4A4A42" transform="translate(131,134)"/>
<path d="M0 0 C0.33 0.66 0.66 1.32 1 2 C1.66 2.33 2.32 2.66 3 3 C2.01 3 1.02 3 0 3 C-1.32 8.28 -2.64 13.56 -4 19 C-2.68 19.33 -1.36 19.66 0 20 C-0.54855348 24.571279 -1.41744803 28.67435795 -3 33 C-4.98 33 -6.96 33 -9 33 C-8.855625 31.96359375 -8.71125 30.9271875 -8.5625 29.859375 C-8.37485993 28.48960251 -8.1873677 27.11980977 -8 25.75 C-7.90460938 25.06808594 -7.80921875 24.38617188 -7.7109375 23.68359375 C-7.2654774 20.40628012 -7 17.31615847 -7 14 C-8.11375 15.175625 -8.11375 15.175625 -9.25 16.375 C-12.5863658 19.55971281 -14.38409534 21 -19 21 C-19.5625 18.375 -19.5625 18.375 -19 15 C-16.88903814 13.28146053 -14.65659411 11.97003 -12.31640625 10.58203125 C-9.9629842 8.9747194 -8.77835826 7.62362392 -7.25 5.25 C-4.9440938 1.91924659 -3.84125238 0.98775061 0 0 Z " fill="#E3AE34" transform="translate(114,100)"/>
<path d="M0 0 C0.66 0.33 1.32 0.66 2 1 C2.04632891 13.56085999 2.08187209 26.12169967 2.10362434 38.68262768 C2.11406402 44.51509302 2.1282267 50.34749993 2.15087891 56.17993164 C2.17260054 61.80794665 2.18456724 67.43590543 2.18975449 73.06395912 C2.19345145 75.21176349 2.20067061 77.35956475 2.21146011 79.5073452 C2.22596585 82.51432332 2.22797831 85.52106872 2.22705078 88.52807617 C2.23424133 89.41712143 2.24143188 90.30616669 2.24884033 91.22215271 C2.23421271 95.60111625 2.05853677 99.01576304 0 103 C-0.33 103 -0.66 103 -1 103 C-0.67 69.01 -0.34 35.02 0 0 Z " fill="#F1CB74" transform="translate(184,11)"/>
<path d="M0 0 C1.46015291 0.28241641 2.91809793 0.57626614 4.375 0.875 C5.18710938 1.03742188 5.99921875 1.19984375 6.8359375 1.3671875 C9 2 9 2 11 4 C7.7 3.34 4.4 2.68 1 2 C2.32 5.96 3.64 9.92 5 14 C6.98 13.67 8.96 13.34 11 13 C11.69918305 15.58067563 12.38461049 18.16372847 13.0625 20.75 C13.26166016 21.47960937 13.46082031 22.20921875 13.66601562 22.9609375 C15.33371384 29.39766744 15.33371384 29.39766744 14 33 C13.01 33.495 13.01 33.495 12 34 C11.34227572 37.02934491 11.34227572 37.02934491 11 40 C9.00948849 37.01423274 8.27575998 34.8778032 7.34375 31.44921875 C7.04339844 30.35802734 6.74304688 29.26683594 6.43359375 28.14257812 C6.12550781 27.00240234 5.81742187 25.86222656 5.5 24.6875 C4.88674668 22.44104275 4.27220338 20.19493718 3.65625 17.94921875 C3.38619141 16.95237061 3.11613281 15.95552246 2.83789062 14.9284668 C2.25206177 12.88096762 1.6018116 10.85130454 0.90429688 8.83911133 C-0.08006338 5.74863472 -0.15348204 3.22312277 0 0 Z " fill="#51452F" transform="translate(115,103)"/>
<path d="M0 0 C0.66 0.33 1.32 0.66 2 1 C1.67 1.99 1.34 2.98 1 4 C2.32 4.33 3.64 4.66 5 5 C4.88485851 7.04224637 4.75742674 9.08380159 4.625 11.125 C4.55539063 12.26195312 4.48578125 13.39890625 4.4140625 14.5703125 C3.66114143 20.80677193 1.46942735 24.85181748 -2 30 C-2.76939681 32.22602615 -2.76939681 32.22602615 -3 34 C-1.02 33.505 -1.02 33.505 1 33 C-1.36595933 35.61500768 -3.86049226 37.38999603 -7 39 C-7.66 38.67 -8.32 38.34 -9 38 C-8.01 34.37 -7.02 30.74 -6 27 C-5.34 27 -4.68 27 -4 27 C-4 24.69 -4 22.38 -4 20 C-3.01 19.67 -2.02 19.34 -1 19 C-1.01160156 18.38253906 -1.02320312 17.76507813 -1.03515625 17.12890625 C-1.09699663 11.32474456 -0.74278956 5.75661912 0 0 Z " fill="#D6A231" transform="translate(104,129)"/>
<path d="M0 0 C4.29 0.33 8.58 0.66 13 1 C10.74865156 5.50269687 10.74865156 5.50269687 7.59375 7.140625 C6.93246094 7.48867187 6.27117187 7.83671875 5.58984375 8.1953125 C4.90019531 8.54335937 4.21054688 8.89140625 3.5 9.25 C2.81035156 9.61351562 2.12070313 9.97703125 1.41015625 10.3515625 C-3.69754464 13 -3.69754464 13 -6 13 C-6.33 13.66 -6.66 14.32 -7 15 C-7.66 14.34 -8.32 13.68 -9 13 C-8.70630173 11.65737935 -8.3721042 10.32303717 -8 9 C-8.33 8.34 -8.66 7.68 -9 7 C-3.375 4 -3.375 4 0 4 C0 2.68 0 1.36 0 0 Z " fill="#5A5B55" transform="translate(168,122)"/>
<path d="M0 0 C4.00348746 1.60710067 6.7152015 4.41795967 9.6875 7.4375 C10.18572266 7.92798828 10.68394531 8.41847656 11.19726562 8.92382812 C13.52764849 11.26685893 14.94061236 12.82183707 16 16 C14.68 15.34 13.36 14.68 12 14 C10.68 14.99 9.36 15.98 8 17 C7.4225 16.05125 6.845 15.1025 6.25 14.125 C4.17183449 11.23865902 3.24531925 10.15904259 0 9 C0 9.66 0 10.32 0 11 C-1.65 10.67 -3.3 10.34 -5 10 C-5.33 10.99 -5.66 11.98 -6 13 C-6.33 12.34 -6.66 11.68 -7 11 C-5.56640625 8.3984375 -5.56640625 8.3984375 -3.5625 5.375 C-2.90378906 4.37210938 -2.24507812 3.36921875 -1.56640625 2.3359375 C-1.04949219 1.56507813 -0.53257812 0.79421875 0 0 Z " fill="#44453F" transform="translate(145,141)"/>
<path d="M0 0 C0.33 0 0.66 0 1 0 C2.32 5.94 3.64 11.88 5 18 C4.01 18.33 3.02 18.66 2 19 C0.77479736 22.00847418 0.77479736 22.00847418 0 25 C0.66 25.33 1.32 25.66 2 26 C0.35 27.32 -1.3 28.64 -3 30 C-2.343621 25.51474352 -1.29925791 21.33085971 0 17 C-1.65 17 -3.3 17 -5 17 C-3.96232949 10.93267948 -2.66038099 5.5626148 0 0 Z " fill="#AD8432" transform="translate(114,103)"/>
<path d="M0 0 C2.375 -0.125 2.375 -0.125 5 0 C7 2 7 2 7.3125 4.8125 C6.96840628 8.32225593 6.01272399 10.14864101 4 13 C1.36 12.34 -1.28 11.68 -4 11 C-2.95902388 7.13351728 -1.96301592 3.50538557 0 0 Z " fill="#BA7D1D" transform="translate(45,135)"/>
<path d="M0 0 C0.99 0.33 1.98 0.66 3 1 C2.67 2.32 2.34 3.64 2 5 C2.99 5.66 3.98 6.32 5 7 C4.67 7.99 4.34 8.98 4 10 C6.79674682 14.13918529 10.44001065 17.5209195 14 21 C13.67 21.66 13.34 22.32 13 23 C10.17937758 20.23733252 7.36995786 17.46353947 4.5625 14.6875 C3.76005859 13.90181641 2.95761719 13.11613281 2.13085938 12.30664062 C1.36708984 11.54931641 0.60332031 10.79199219 -0.18359375 10.01171875 C-0.89056396 9.31522217 -1.59753418 8.61872559 -2.32592773 7.90112305 C-4 6 -4 6 -5 3 C-2.6875 1.4375 -2.6875 1.4375 0 0 Z " fill="#3F413A" transform="translate(158,130)"/>
<path d="M0 0 C1.65 0 3.3 0 5 0 C4.45144652 4.571279 3.58255197 8.67435795 2 13 C0.02 13 -1.96 13 -4 13 C-3.40895235 8.15340923 -2.02055843 4.39251833 0 0 Z " fill="#584521" transform="translate(109,120)"/>
<path d="M0 0 C0.33 2.31 0.66 4.62 1 7 C-0.28716647 8.00578589 -1.57988658 9.00446798 -2.875 10 C-3.95394531 10.8353125 -3.95394531 10.8353125 -5.0546875 11.6875 C-7 13 -7 13 -9 13 C-10 10.4375 -10 10.4375 -10 7 C-7.49053055 4.01367174 -4.10209959 0 0 0 Z " fill="#554C38" transform="translate(136,88)"/>
<path d="M0 0 C1.98 0 3.96 0 6 0 C5.52060632 4.71403788 5.03165952 8.66579301 3 13 C1.35 13 -0.3 13 -2 13 C-1.34 8.71 -0.68 4.42 0 0 Z " fill="#6A542B" transform="translate(118,81)"/>
<path d="M0 0 C0.33 1.98 0.66 3.96 1 6 C-0.26538369 6.84158536 -1.53753779 7.67299748 -2.8125 8.5 C-3.52019531 8.9640625 -4.22789063 9.428125 -4.95703125 9.90625 C-7 11 -7 11 -10 11 C-10.5 8.3125 -10.5 8.3125 -10 5 C-7.19798835 2.52424998 -3.83491389 0 0 0 Z " fill="#443B28" transform="translate(105,110)"/>
<path d="M0 0 C2.31 1.98 4.62 3.96 7 6 C5.6875 8.5 5.6875 8.5 4 11 C0.09161134 11 -1.11594107 9.49432124 -4 7 C-2.92598892 4.08482708 -2.22189824 2.22189824 0 0 Z " fill="#4B463D" transform="translate(104,91)"/>
<path d="M0 0 C1.46015291 0.28241641 2.91809793 0.57626614 4.375 0.875 C5.18710938 1.03742188 5.99921875 1.19984375 6.8359375 1.3671875 C9 2 9 2 11 4 C7.7 3.34 4.4 2.68 1 2 C2.32 5.96 3.64 9.92 5 14 C6.65 13.67 8.3 13.34 10 13 C10 14.98 10 16.96 10 19 C8.35 19.33 6.7 19.66 5 20 C2.29466594 13.26812223 0.47567125 7.25398658 0 0 Z " fill="#4B3B21" transform="translate(115,103)"/>
<path d="M0 0 C0 0.66 0 1.32 0 2 C0.99 2.33 1.98 2.66 3 3 C3 3.99 3 4.98 3 6 C-2.44567686 4.97137215 -7.11817117 3.75385216 -12 1 C-11 -1 -11 -1 -9.375 -1.75 C-5.96334563 -2.10912151 -3.22534792 -1.05444067 0 0 Z " fill="#48483D" transform="translate(136,109)"/>
<path d="M0 0 C0.391875 0.45375 0.78375 0.9075 1.1875 1.375 C3.30832487 3.27642919 5.33042235 4.06204028 8 5 C5.8125 7.5625 5.8125 7.5625 3 10 C0.3125 10.0625 0.3125 10.0625 -2 9 C-3.3125 6.9375 -3.3125 6.9375 -4 5 C-2.68 3.35 -1.36 1.7 0 0 Z " fill="#F3B130" transform="translate(41,143)"/>
<path d="M0 0 C2 3 2 3 2.875 4.9375 C4.22643254 7.41512632 5.94644091 9.08334485 8 11 C4.20246301 11 2.93581015 9.81129297 -0.125 7.625 C-1.01445312 6.99851563 -1.90390625 6.37203125 -2.8203125 5.7265625 C-5 4 -5 4 -6 2 C-4.02 2 -2.04 2 0 2 C0 1.34 0 0.68 0 0 Z " fill="#D7B160" transform="translate(14,156)"/>
<path d="M0 0 C4.00348746 1.60710067 6.7152015 4.41795967 9.6875 7.4375 C10.18572266 7.92798828 10.68394531 8.41847656 11.19726562 8.92382812 C13.52764849 11.26685893 14.94061236 12.82183707 16 16 C11.93293906 14.42046703 9.70707074 11.67958695 6.875 8.4375 C3.83511822 4.71412066 3.83511822 4.71412066 0 2 C-0.28875 2.804375 -0.5775 3.60875 -0.875 4.4375 C-2 7 -2 7 -4 8 C-2.87548273 5.0280615 -1.77706209 2.66559313 0 0 Z " fill="#363731" transform="translate(145,141)"/>
<path d="M0 0 C0.66 0.33 1.32 0.66 2 1 C2.625 4.0625 2.625 4.0625 3 7 C2.01 7.33 1.02 7.66 0 8 C-1.22520264 11.00847418 -1.22520264 11.00847418 -2 14 C-1.34 14.33 -0.68 14.66 0 15 C-1.65 16.32 -3.3 17.64 -5 19 C-4.45182107 15.43683694 -3.80300762 11.90261506 -3.0625 8.375 C-2.90910156 7.64023438 -2.75570312 6.90546875 -2.59765625 6.1484375 C-1.97687606 3.91687473 -1.09946271 2.03331598 0 0 Z " fill="#AB823B" transform="translate(116,114)"/>
<path d="M0 0 C4 2 4 2 5 4 C5.99 3.67 6.98 3.34 8 3 C7.25 5.875 7.25 5.875 6 9 C4.02 9.99 4.02 9.99 2 11 C1.34 7.37 0.68 3.74 0 0 Z " fill="#585851" transform="translate(130,159)"/>
<path d="M0 0 C3.86326863 2.52295094 6.10321092 4.32006518 7.375 8.8125 C7.58125 9.864375 7.7875 10.91625 8 12 C3.86378916 8.6189962 0.18683431 5.33409466 -3 1 C-2.01 0.67 -1.02 0.34 0 0 Z " fill="#4D4E47" transform="translate(163,138)"/>
<path d="M0 0 C3.96 1.32 7.92 2.64 12 4 C9 5 9 5 6 4 C5.67 5.32 5.34 6.64 5 8 C5 7.34 5 6.68 5 6 C4.21625 5.896875 3.4325 5.79375 2.625 5.6875 C0 5 0 5 -2 2 C-1.34 1.34 -0.68 0.68 0 0 Z " fill="#4A4840" transform="translate(162,118)"/>
<path d="M0 0 C0.99 0 1.98 0 3 0 C2.125 6.75 2.125 6.75 1 9 C-0.32 9 -1.64 9 -3 9 C-2.01 6.03 -1.02 3.06 0 0 Z " fill="#3A3832" transform="translate(110,122)"/>
<path d="M0 0 C3.73487777 0.4979837 5.81237635 0.87491756 9 3 C11.28648848 3.24107326 11.28648848 3.24107326 13.6875 3.125 C14.49574219 3.10695312 15.30398437 3.08890625 16.13671875 3.0703125 C16.75160156 3.04710937 17.36648437 3.02390625 18 3 C15.328125 5.9375 15.328125 5.9375 12.375 6.5 C7.6059172 5.79346921 4.05250775 3.52156037 0 1 C0 0.67 0 0.34 0 0 Z " fill="#DFC077" transform="translate(45,183)"/>
<path d="M0 0 C1.65 0 3.3 0 5 0 C4.01 0.495 4.01 0.495 3 1 C2.53248212 3.35599235 2.53248212 3.35599235 2.375 6.0625 C2.30023438 6.98160156 2.22546875 7.90070313 2.1484375 8.84765625 C2.09945312 9.55792969 2.05046875 10.26820312 2 11 C1.01 11 0.02 11 -1 11 C-0.67 7.37 -0.34 3.74 0 0 Z " fill="#4E4D44" transform="translate(119,81)"/>
<path d="M0 0 C0.66 0 1.32 0 2 0 C4.42857143 7.42857143 4.42857143 7.42857143 3 11 C2.34 11 1.68 11 1 11 C-0.62950412 6.87831311 -1.26264601 4.29299643 0 0 Z " fill="#C89432" transform="translate(122,138)"/>
<path d="M0 0 C0.99 0.33 1.98 0.66 3 1 C3.33 2.98 3.66 4.96 4 7 C2.35 7.33 0.7 7.66 -1 8 C-1.625 5.125 -1.625 5.125 -2 2 C-1.34 1.34 -0.68 0.68 0 0 Z " fill="#3C3C35" transform="translate(126,129)"/>
<path d="M0 0 C0 2.95274099 -0.43891831 4.49058403 -1.5 7.1875 C-1.7784375 7.90292969 -2.056875 8.61835938 -2.34375 9.35546875 C-2.5603125 9.89816406 -2.776875 10.44085938 -3 11 C-3.99 10.34 -4.98 9.68 -6 9 C-5.814375 8.38125 -5.62875 7.7625 -5.4375 7.125 C-4.76313824 4.95839822 -4.76313824 4.95839822 -6 3 C-4.02 2.01 -2.04 1.02 0 0 Z " fill="#53534D" transform="translate(165,126)"/>
<path d="M0 0 C0 1.98 0 3.96 0 6 C-1.65 6.33 -3.3 6.66 -5 7 C-5.33 5.02 -5.66 3.04 -6 1 C-3.92446352 0.4465236 -2.15634036 0 0 0 Z " fill="#3A3930" transform="translate(125,116)"/>
<path d="M0 0 C2.89696854 0.36982577 5.37621929 0.68810965 8 2 C2.25 7 2.25 7 0 7 C-0.38133299 5.0085944 -0.71325582 3.00720923 -1 1 C-0.67 0.67 -0.34 0.34 0 0 Z " fill="#4F422D" transform="translate(127,94)"/>
<path d="M0 0 C0 0.99 0 1.98 0 3 C-1.46015291 2.71758359 -2.91809793 2.42373386 -4.375 2.125 C-5.18710938 1.96257812 -5.99921875 1.80015625 -6.8359375 1.6328125 C-9 1 -9 1 -11 -1 C-3.57142857 -2.42857143 -3.57142857 -2.42857143 0 0 Z " fill="#4F514C" transform="translate(139,112)"/>
<path d="M0 0 C2 1.3125 2 1.3125 4 3 C4 3.99 4 4.98 4 6 C2.35 6.66 0.7 7.32 -1 8 C-2 7 -2 7 -2.1875 4.5625 C-2 2 -2 2 0 0 Z " fill="#494B42" transform="translate(121,110)"/>
<path d="M0 0 C0.391875 0.45375 0.78375 0.9075 1.1875 1.375 C3.30832487 3.27642919 5.33042235 4.06204028 8 5 C7.67 5.66 7.34 6.32 7 7 C-0.42857143 6 -0.42857143 6 -4 5 C-2.68 3.35 -1.36 1.7 0 0 Z " fill="#D6A23D" transform="translate(41,143)"/>
<path d="M0 0 C0.66 0.66 1.32 1.32 2 2 C1.01 2.66 0.02 3.32 -1 4 C-0.20882096 5.99983534 -0.20882096 5.99983534 1 8 C1.99 8.33 2.98 8.66 4 9 C3.67 9.99 3.34 10.98 3 12 C0.69 10.35 -1.62 8.7 -4 7 C-2.92598892 4.08482708 -2.22189824 2.22189824 0 0 Z " fill="#5C4620" transform="translate(104,91)"/>
<path d="M0 0 C1.80411967 2.75924185 2.0127245 3.88972103 1.625 7.25 C1.41875 8.1575 1.2125 9.065 1 10 C-0.32 10 -1.64 10 -3 10 C-3 9.01 -3 8.02 -3 7 C-2.34 6.67 -1.68 6.34 -1 6 C-0.34227572 2.97065509 -0.34227572 2.97065509 0 0 Z " fill="#4D4D47" transform="translate(125,116)"/>
<path d="M0 0 C0 2.95274099 -0.43891831 4.49058403 -1.5 7.1875 C-1.7784375 7.90292969 -2.056875 8.61835938 -2.34375 9.35546875 C-2.5603125 9.89816406 -2.776875 10.44085938 -3 11 C-3.66 11 -4.32 11 -5 11 C-4.46884894 6.48521602 -2.63379708 3.65333143 0 0 Z " fill="#C79428" transform="translate(106,152)"/>
<path d="M0 0 C2.375 -0.125 2.375 -0.125 5 0 C7 2 7 2 7.125 5.125 C7.08375 6.07375 7.0425 7.0225 7 8 C6.34 7.01 5.68 6.02 5 5 C4.01 5 3.02 5 2 5 C2 4.01 2 3.02 2 2 C1.34 1.34 0.68 0.68 0 0 Z " fill="#C98B1F" transform="translate(45,135)"/>
<path d="M0 0 C0.33 0.99 0.66 1.98 1 3 C2.32 2.67 3.64 2.34 5 2 C2.63404067 4.61500768 0.13950774 6.38999603 -3 8 C-3.66 7.67 -4.32 7.34 -5 7 C-4.67 6.34 -4.34 5.68 -4 5 C-3.01 5 -2.02 5 -1 5 C-1.33 4.01 -1.66 3.02 -2 2 C-1.34 1.34 -0.68 0.68 0 0 Z " fill="#D0AB59" transform="translate(100,160)"/>
<path d="M0 0 C0.66 0 1.32 0 2 0 C1.40380045 4.86896303 0.43023178 9.32790951 -1 14 C-1.33 14 -1.66 14 -2 14 C-1.85970581 11.8537974 -1.71261836 9.70803782 -1.5625 7.5625 C-1.48128906 6.36753906 -1.40007812 5.17257813 -1.31640625 3.94140625 C-1 1 -1 1 0 0 Z " fill="#BE9033" transform="translate(109,133)"/>
<path d="M0 0 C5.75 0.75 5.75 0.75 8 3 C7.67 3.33 7.34 3.66 7 4 C7.66 4.66 8.32 5.32 9 6 C6.03 5.505 6.03 5.505 3 5 C2.67 4.01 2.34 3.02 2 2 C1.34 1.34 0.68 0.68 0 0 Z " fill="#3E3C33" transform="translate(136,110)"/>
<path d="M0 0 C0.33 0 0.66 0 1 0 C1.66 3.3 2.32 6.6 3 10 C1.68 10 0.36 10 -1 10 C-1.125 2.25 -1.125 2.25 0 0 Z " fill="#99732B" transform="translate(114,103)"/>
<path d="M0 0 C0.33 0.66 0.66 1.32 1 2 C-0.5778125 2.2165625 -0.5778125 2.2165625 -2.1875 2.4375 C-5.15460549 2.87526966 -8.06794366 3.37804866 -11 4 C-7.35237315 0.18657193 -5.28949249 -0.11498897 0 0 Z " fill="#EDCC76" transform="translate(175,3)"/>
<path d="M0 0 C5.66153846 1.47692308 5.66153846 1.47692308 7.375 4.125 C7.684375 5.053125 7.684375 5.053125 8 6 C5 6 5 6 3.61328125 4.6875 C2.40885417 3.125 1.20442708 1.5625 0 0 Z " fill="#6C6C61" transform="translate(153,159)"/>
<path d="M0 0 C2 1 2 1 3.1875 3.3125 C4.03624754 6.11989571 3.99928333 7.301935 3 10 C2.34 8.68 1.68 7.36 1 6 C0.01 6 -0.98 6 -2 6 C-2 5.34 -2 4.68 -2 4 C-1.34 4 -0.68 4 0 4 C0 2.68 0 1.36 0 0 Z " fill="#B0935D" transform="translate(125,145)"/>
<path d="M0 0 C0.928125 0.20625 1.85625 0.4125 2.8125 0.625 C1.8225 0.955 0.8325 1.285 -0.1875 1.625 C-0.1875 2.285 -0.1875 2.945 -0.1875 3.625 C0.8025 3.955 1.7925 4.285 2.8125 4.625 C-3.9375 3.875 -3.9375 3.875 -6.1875 1.625 C-3.1875 -0.375 -3.1875 -0.375 0 0 Z " fill="#3A3930" transform="translate(154.1875,115.375)"/>
<path d="M0 0 C2.70249451 0.37275786 3.79935135 0.78448849 5.6875 2.8125 C6.95294755 4.92157924 7.57033648 6.59388429 8 9 C5.06799526 6.14723863 2.35684596 3.34920216 0 0 Z " fill="#606056" transform="translate(145,150)"/>
<path d="M0 0 C1.485 0.99 1.485 0.99 3 2 C3.1875 5.625 3.1875 5.625 3 9 C3.66 9.33 4.32 9.66 5 10 C4.01 10.33 3.02 10.66 2 11 C1.34 7.37 0.68 3.74 0 0 Z " fill="#868376" transform="translate(130,159)"/>
<path d="M0 0 C0.66 0 1.32 0 2 0 C2.08886184 3.19902639 1.91058531 5.92677456 1 9 C0.34 9 -0.32 9 -1 9 C-0.67 6.03 -0.34 3.06 0 0 Z " fill="#E2AB33" transform="translate(98,156)"/>
<path d="M0 0 C4.31392226 0.4793247 6.16569547 1.7457985 9 5 C4.98525763 5 3.18024863 3.33218233 0 1 C0 0.67 0 0.34 0 0 Z " fill="#D8B86D" transform="translate(36,177)"/>
<path d="M0 0 C0.99 0.33 1.98 0.66 3 1 C2.1875 3.4375 2.1875 3.4375 1 6 C0.01 6.33 -0.98 6.66 -2 7 C-1.125 1.125 -1.125 1.125 0 0 Z " fill="#3C3D3D" transform="translate(110,122)"/>
<path d="M0 0 C0.598125 0.20625 1.19625 0.4125 1.8125 0.625 C1.4825 1.615 1.1525 2.605 0.8125 3.625 C-1.1675 2.965 -3.1475 2.305 -5.1875 1.625 C-2.1875 -0.375 -2.1875 -0.375 0 0 Z " fill="#CE8E17" transform="translate(48.1875,144.375)"/>
</svg>
