<?xml version="1.0" standalone="no"?>
<!DOCTYPE svg PUBLIC "-//W3C//DTD SVG 20010904//EN"
 "http://www.w3.org/TR/2001/REC-SVG-20010904/DTD/svg10.dtd">
<svg version="1.0" xmlns="http://www.w3.org/2000/svg"
 width="2048.000000pt" height="2048.000000pt" viewBox="0 0 2048.000000 2048.000000"
 preserveAspectRatio="xMidYMid meet">

<g transform="translate(0.000000,2048.000000) scale(0.100000,-0.100000)"
fill="#000000" stroke="none">
<path d="M7790 18124 c-30 -8 -163 -72 -295 -141 -132 -70 -292 -154 -355
-186 -116 -60 -399 -210 -500 -265 -30 -16 -107 -57 -170 -89 -350 -181 -688
-358 -860 -451 -107 -58 -334 -178 -505 -267 -170 -89 -337 -178 -370 -197
-33 -19 -141 -77 -240 -128 -99 -51 -223 -116 -275 -145 -52 -29 -176 -94
-275 -145 -214 -111 -476 -250 -490 -260 -5 -4 -73 -40 -150 -80 -77 -40 -225
-119 -330 -175 -104 -56 -228 -123 -275 -148 -115 -61 -298 -159 -585 -314
-132 -71 -282 -151 -333 -178 -198 -101 -252 -163 -252 -284 0 -79 24 -128 90
-180 62 -49 86 -54 405 -91 143 -16 312 -36 375 -44 63 -8 176 -22 250 -31 74
-8 263 -31 420 -50 157 -19 308 -37 335 -40 110 -13 270 -38 277 -44 8 -7 -16
-45 -235 -366 -75 -110 -188 -276 -252 -370 -64 -93 -156 -228 -206 -300 -49
-71 -142 -206 -205 -300 -64 -93 -185 -271 -269 -395 -205 -299 -419 -620
-442 -661 -13 -25 -18 -56 -18 -114 0 -181 27 -207 450 -446 72 -40 211 -120
310 -177 99 -58 248 -143 330 -190 144 -81 330 -188 387 -221 l28 -16 0 -2530
c0 -2441 1 -2531 19 -2570 33 -72 89 -111 346 -245 88 -46 264 -140 390 -210
127 -70 311 -171 410 -225 99 -54 239 -130 310 -170 72 -39 200 -109 285 -155
85 -45 216 -117 290 -158 74 -41 200 -110 280 -152 194 -103 454 -246 510
-280 25 -15 81 -47 125 -70 91 -48 293 -159 565 -310 102 -56 284 -156 405
-222 121 -66 312 -171 425 -233 113 -62 266 -145 340 -185 74 -41 194 -106
265 -145 72 -40 265 -145 430 -235 165 -89 392 -213 505 -275 113 -62 279
-153 370 -203 91 -49 185 -102 210 -116 55 -32 160 -66 204 -66 60 0 131 29
291 121 88 50 232 129 320 176 88 47 221 118 295 158 139 74 568 308 860 468
162 89 319 174 695 377 105 56 219 119 255 140 36 20 157 86 270 145 113 59
241 129 285 155 44 26 130 73 190 105 124 65 303 161 510 275 77 43 232 126
345 185 113 59 250 134 305 165 55 32 181 101 280 155 99 54 192 106 206 116
l26 18 58 -182 c32 -100 84 -261 115 -357 32 -96 70 -213 85 -260 71 -224 97
-291 111 -279 12 10 129 188 178 271 11 18 63 101 116 183 53 83 141 220 194
305 155 245 238 370 246 370 4 0 66 -65 139 -144 72 -79 155 -165 184 -192 28
-27 249 -249 490 -492 241 -244 442 -442 448 -440 5 2 181 174 390 383 405
404 440 446 480 576 28 90 27 131 -4 177 -14 22 -247 263 -517 537 -270 273
-489 502 -487 508 4 12 441 265 621 360 65 34 132 75 148 90 32 33 191 350
186 374 -2 11 -62 34 -203 78 -518 161 -632 197 -795 250 -96 31 -241 78 -322
103 l-148 47 3 1874 2 1875 155 85 c85 48 187 105 225 127 71 42 553 310 680
379 263 142 359 206 400 265 66 96 73 223 16 331 -27 52 -326 505 -534 810
-40 58 -101 150 -137 205 -35 54 -236 358 -445 674 -210 316 -393 596 -408
622 l-28 47 23 5 c24 5 252 35 708 91 151 19 345 43 430 54 85 11 272 34 414
51 300 37 350 51 413 117 81 86 93 199 33 292 -40 63 -88 96 -266 182 -82 40
-214 107 -294 149 -80 42 -226 119 -325 170 -328 169 -450 233 -460 240 -5 4
-91 48 -190 98 -99 50 -241 124 -315 165 -74 40 -259 137 -410 214 -151 77
-430 220 -620 318 -190 98 -408 209 -485 248 -77 38 -214 109 -305 157 -91 48
-300 156 -465 240 -165 84 -304 156 -310 160 -5 4 -75 40 -155 80 -211 106
-898 462 -1365 709 -312 164 -326 170 -410 171 -90 0 -484 -39 -1750 -175
-486 -52 -554 -56 -704 -45 -80 6 -240 22 -356 35 -115 13 -329 38 -475 54
-146 17 -384 44 -530 60 -146 17 -330 37 -410 46 -80 8 -188 20 -240 25 -114
13 -319 30 -340 29 -8 0 -40 -7 -70 -15z m642 -534 c521 -53 935 -95 1031
-106 31 -4 57 -9 57 -13 -1 -3 -40 -25 -88 -48 -92 -45 -181 -92 -352 -188
-58 -32 -184 -100 -280 -150 -96 -51 -278 -148 -405 -217 -126 -69 -284 -153
-350 -188 -66 -35 -189 -101 -273 -147 -84 -46 -155 -83 -157 -83 -2 0 -26
-13 -53 -29 -27 -16 -112 -61 -188 -101 -76 -40 -159 -84 -184 -98 -91 -51
-532 -288 -760 -410 -129 -68 -257 -137 -285 -152 -27 -15 -93 -49 -145 -77
-208 -110 -282 -150 -455 -243 -99 -53 -243 -130 -320 -170 -77 -40 -153 -80
-170 -90 -16 -10 -66 -37 -110 -60 -44 -23 -123 -66 -175 -95 -52 -29 -183
-97 -290 -153 -107 -55 -221 -113 -252 -130 l-57 -29 -84 22 c-77 21 -277 47
-797 105 -102 11 -259 29 -350 40 -91 11 -213 26 -272 32 -60 6 -108 15 -108
19 0 5 5 9 11 9 10 0 333 169 704 368 66 35 215 114 330 174 116 61 309 163
430 228 121 64 288 152 370 195 83 43 177 92 210 110 195 104 378 202 510 270
83 43 227 119 320 170 94 51 262 140 375 200 113 59 261 138 330 175 69 37
258 138 421 223 163 85 336 177 385 204 49 27 141 76 204 108 63 32 120 61
125 65 14 11 176 96 400 211 119 62 202 98 222 99 17 0 254 -22 525 -50z
m4511 -111 c150 -78 324 -170 387 -204 63 -34 138 -72 165 -85 28 -13 158 -80
290 -148 484 -251 1022 -527 1096 -563 42 -20 152 -78 245 -127 93 -49 282
-147 419 -217 317 -161 847 -434 1405 -723 239 -124 588 -304 775 -399 187
-96 344 -178 348 -182 5 -5 -2 -11 -15 -14 -28 -7 -303 -43 -738 -97 -438 -55
-610 -78 -706 -97 l-81 -15 -214 108 c-118 59 -234 120 -259 134 -25 15 -162
86 -305 159 -143 74 -287 148 -320 166 -33 18 -112 60 -175 93 -63 33 -144 75
-180 94 -36 19 -121 65 -190 100 -160 84 -724 379 -900 471 -74 38 -243 127
-375 197 -132 70 -330 173 -440 230 -110 57 -204 106 -210 110 -5 4 -113 60
-240 125 -126 65 -295 153 -375 195 -80 43 -230 121 -335 175 -104 54 -237
124 -295 155 -58 32 -199 106 -315 165 -251 129 -338 176 -333 180 2 2 78 11
168 19 91 9 230 23 310 32 409 45 993 102 1053 103 l68 1 272 -141z m-2854
-2986 c2 -2626 -1 -3143 -20 -3143 -9 0 -251 127 -534 280 -99 54 -279 148
-400 210 -121 62 -236 123 -255 135 -20 13 -144 79 -275 147 -132 69 -305 161
-385 205 -80 44 -210 114 -290 156 -80 41 -197 103 -260 137 -63 34 -212 113
-330 175 -118 61 -262 138 -320 170 -58 31 -186 100 -285 152 -99 52 -216 116
-260 141 -44 25 -154 85 -245 132 -202 106 -446 236 -730 390 -118 64 -378
204 -577 311 -200 107 -363 199 -363 204 0 6 73 49 163 96 413 218 564 298
722 384 94 51 215 116 270 145 249 131 421 223 430 230 6 5 145 80 310 168
514 273 702 374 950 509 132 71 386 208 565 303 179 95 388 208 465 250 77 43
174 95 215 117 41 22 208 111 370 198 162 87 329 177 370 200 41 23 176 95
300 160 124 66 259 138 300 161 41 23 80 43 85 43 7 1 12 -870 14 -2766z m750
2593 c152 -79 461 -240 686 -358 226 -118 496 -259 600 -313 105 -54 195 -101
200 -105 6 -4 98 -51 205 -105 107 -54 224 -115 260 -135 36 -21 146 -79 245
-130 99 -51 185 -96 190 -100 6 -4 143 -76 305 -160 162 -84 426 -221 585
-305 160 -84 346 -182 415 -217 69 -36 195 -103 280 -148 387 -206 508 -270
700 -370 453 -236 560 -295 560 -309 0 -4 -134 -79 -297 -166 -164 -87 -323
-173 -353 -191 -47 -27 -465 -249 -850 -451 -58 -31 -134 -72 -170 -93 -36
-21 -103 -58 -150 -82 -47 -25 -290 -154 -540 -287 -250 -134 -529 -283 -620
-331 -91 -48 -259 -137 -375 -198 -115 -60 -273 -143 -350 -184 -77 -41 -219
-116 -316 -166 -97 -49 -220 -115 -275 -145 -54 -30 -218 -115 -364 -189 -146
-75 -285 -146 -310 -160 -86 -48 -495 -257 -522 -267 l-28 -11 0 2910 c0 1601
3 2910 6 2910 4 0 131 -65 283 -144z m5751 -3123 c29 -49 102 -160 162 -248
60 -88 376 -563 703 -1055 l595 -895 -22 -17 c-13 -9 -106 -63 -208 -119 -102
-57 -214 -121 -250 -142 -36 -22 -171 -100 -300 -172 -129 -73 -289 -164 -355
-202 -134 -78 -334 -191 -439 -247 -37 -21 -98 -56 -135 -78 -36 -23 -154 -89
-261 -148 -107 -59 -249 -139 -315 -177 -66 -39 -235 -135 -375 -213 -140 -79
-320 -180 -400 -225 -80 -44 -228 -128 -330 -187 -102 -58 -284 -161 -405
-229 -207 -116 -415 -232 -705 -396 -69 -38 -161 -89 -205 -113 -44 -23 -84
-46 -90 -50 -5 -4 -30 -19 -55 -32 -77 -43 -439 -247 -555 -313 -60 -34 -177
-101 -260 -147 -213 -121 -284 -158 -306 -158 -19 0 -146 186 -463 677 -49 76
-218 335 -375 576 -157 241 -324 498 -370 570 -47 73 -144 222 -216 332 -138
210 -190 294 -184 299 12 8 319 171 399 211 52 26 142 73 200 105 58 32 245
130 415 218 534 275 1453 754 1550 807 76 41 214 114 480 252 116 61 269 141
340 180 72 39 193 103 270 143 166 86 253 133 395 210 58 32 197 106 310 165
113 59 277 147 365 195 209 114 384 207 810 433 193 102 386 206 430 231 44
25 85 46 91 46 6 0 35 -39 64 -87z m-12200 -93 c69 -37 172 -93 230 -125 58
-32 188 -101 290 -155 270 -142 344 -182 355 -190 11 -9 196 -108 495 -265
113 -59 273 -145 355 -190 83 -45 204 -110 270 -145 66 -34 188 -99 270 -145
83 -45 218 -118 300 -162 453 -243 595 -319 950 -508 215 -115 477 -255 583
-312 107 -57 196 -103 198 -103 2 0 79 -42 171 -94 193 -107 504 -277 643
-349 52 -28 200 -108 329 -179 129 -70 238 -128 242 -128 30 0 2 -43 -336
-520 -49 -69 -102 -145 -119 -170 -16 -25 -93 -135 -170 -245 -404 -577 -677
-973 -891 -1290 -55 -82 -108 -151 -117 -153 -9 -2 -45 14 -80 36 -81 50 -560
324 -833 477 -115 65 -246 139 -290 165 -44 26 -204 116 -355 200 -151 84
-308 173 -348 197 -40 24 -103 60 -140 80 -59 31 -959 543 -1242 706 -58 33
-238 135 -400 227 -162 92 -333 190 -380 217 -120 71 -466 269 -590 338 -58
32 -211 120 -340 195 -129 75 -367 210 -527 300 -161 90 -293 167 -293 171 0
4 19 36 43 71 116 170 400 585 464 678 40 58 115 168 167 245 52 77 165 241
251 365 86 124 256 374 378 556 l222 332 60 -30 c33 -17 116 -61 185 -98z
m12198 -5217 c0 -865 -4 -1573 -8 -1573 -4 0 -136 40 -292 89 -385 121 -942
291 -1118 341 -80 23 -199 59 -265 80 -127 41 -201 55 -229 44 -18 -7 -58 -82
-126 -236 l-42 -96 32 -104 c66 -214 305 -954 385 -1193 24 -71 64 -195 89
-275 25 -80 79 -248 121 -374 41 -126 75 -230 75 -232 0 -2 -21 -14 -47 -27
-43 -21 -632 -339 -913 -492 -58 -31 -172 -93 -255 -138 -82 -44 -175 -95
-205 -112 -64 -37 -306 -165 -313 -165 -3 0 -7 9 -10 20 -7 27 -39 26 -85 -4
-20 -12 -104 -58 -187 -101 -82 -43 -196 -102 -253 -132 -57 -29 -107 -51
-113 -48 -10 7 -11 464 0 560 l6 59 60 34 c32 18 170 90 305 159 135 69 251
130 258 135 9 8 12 86 12 328 0 175 -3 325 -6 334 -10 26 -30 19 -153 -47 -64
-35 -150 -81 -191 -102 -41 -21 -91 -48 -111 -61 -38 -24 -175 -94 -184 -94
-3 0 -5 294 -5 654 0 431 -3 657 -10 661 -10 6 -93 -36 -390 -196 -85 -47
-181 -98 -212 -114 l-58 -30 0 -326 c0 -298 -1 -327 -17 -341 -20 -17 -79 -50
-233 -130 -58 -31 -157 -83 -221 -117 -64 -33 -124 -61 -133 -61 -16 0 -17 22
-14 303 1 166 -1 308 -5 315 -15 22 -39 13 -181 -67 -78 -43 -186 -102 -241
-131 -92 -49 -280 -149 -483 -257 -59 -32 -84 -41 -87 -31 -3 7 -4 1048 -3
2313 l3 2300 290 -472 c160 -260 352 -575 428 -700 400 -660 482 -788 542
-849 77 -78 132 -98 246 -92 69 4 90 11 185 57 115 56 421 221 519 281 33 20
101 58 150 85 98 53 208 115 470 265 420 241 1189 672 1785 1000 179 99 292
162 515 285 127 70 280 154 340 187 61 33 153 85 205 116 52 31 156 89 230
128 l135 71 7 -56 c3 -31 6 -764 6 -1628z m-12288 1515 c118 -67 294 -166 390
-221 96 -55 229 -130 295 -167 105 -59 180 -101 375 -212 25 -14 131 -75 235
-135 105 -60 226 -129 270 -153 44 -24 133 -74 199 -112 65 -38 198 -112 295
-165 97 -53 334 -186 526 -295 372 -212 496 -283 995 -564 432 -244 428 -241
506 -260 137 -32 266 8 345 109 23 28 150 214 282 412 132 198 254 378 272
400 18 22 185 265 371 540 l339 500 6 -525 c11 -925 10 -6760 -1 -6760 -5 0
-90 44 -187 98 -98 55 -338 186 -533 292 -195 106 -371 202 -390 213 -19 11
-87 48 -150 82 -63 34 -203 109 -310 167 -259 140 -503 269 -677 358 -99 51
-143 80 -147 94 -3 12 -6 54 -6 94 0 54 3 72 14 72 14 0 65 -27 350 -188 179
-101 239 -120 279 -88 29 23 37 113 37 424 l0 293 -30 27 c-16 15 -87 58 -157
96 -70 38 -197 107 -281 154 -91 50 -166 85 -185 86 -55 2 -57 -10 -57 -391 0
-223 -4 -344 -10 -348 -11 -7 -66 22 -425 219 l-210 115 -5 385 -5 386 -30 24
c-16 14 -70 46 -120 72 -71 38 -417 232 -484 272 -12 7 -14 65 -12 355 2 238
-1 358 -9 382 -12 37 -42 58 -180 130 -41 21 -97 52 -125 68 -27 16 -79 45
-115 65 -36 20 -105 59 -155 88 l-90 52 -3 358 c-1 197 1 361 5 365 5 5 114
-50 243 -122 355 -195 354 -195 385 -181 49 22 52 49 50 415 l-2 338 -29 29
c-16 16 -65 49 -109 73 -44 24 -150 83 -235 132 -85 48 -177 101 -205 116 -59
34 -88 36 -115 9 -19 -19 -20 -33 -20 -375 0 -326 -1 -355 -17 -355 -9 0 -87
40 -172 88 -86 49 -222 126 -303 172 l-148 83 0 379 c0 312 -3 384 -15 407 -8
17 -44 46 -87 71 -40 24 -93 56 -118 70 -25 15 -148 85 -275 155 -126 70 -261
148 -300 174 l-70 46 1 340 c4 810 4 795 16 795 7 0 109 -55 228 -122z m33
-2026 c28 -16 115 -64 192 -108 77 -44 185 -106 241 -137 l101 -56 7 -81 c4
-44 6 -211 6 -370 -1 -260 -3 -290 -17 -290 -17 0 -332 165 -490 257 -50 29
-99 63 -107 75 -14 19 -16 72 -16 374 0 193 3 354 7 357 11 11 21 8 76 -21z
m11087 -1057 c386 -122 771 -241 1270 -391 63 -20 216 -67 340 -105 124 -39
313 -97 420 -130 395 -121 430 -133 430 -139 0 -3 -55 -37 -122 -74 -68 -38
-163 -93 -213 -121 -49 -29 -200 -112 -335 -185 -135 -73 -247 -135 -250 -137
-3 -3 45 -53 105 -112 274 -269 1176 -1192 1183 -1210 3 -9 -371 -373 -389
-379 -9 -4 -354 344 -973 981 -175 180 -324 327 -331 327 -7 0 -66 -82 -130
-182 -65 -101 -151 -232 -190 -293 -40 -60 -97 -148 -126 -195 -99 -155 -134
-205 -144 -203 -10 2 -56 140 -324 968 -84 259 -202 623 -263 810 -93 290
-269 819 -286 864 -4 11 -1 13 14 7 10 -4 152 -50 314 -101z m-10435 -79 c28
-12 151 -78 275 -146 124 -68 239 -129 257 -137 l33 -13 0 -365 c0 -227 -4
-366 -10 -370 -5 -3 -58 20 -117 53 -60 32 -190 103 -290 157 -100 53 -191
106 -202 117 -20 18 -21 29 -21 373 0 277 3 355 13 355 6 0 35 -11 62 -24z
m757 -1175 c263 -145 383 -213 438 -250 l55 -36 3 -359 c1 -206 -2 -364 -7
-369 -8 -8 -112 43 -271 133 -36 21 -126 70 -200 110 -74 40 -143 79 -152 88
-17 14 -18 45 -18 389 0 205 2 373 5 373 3 0 69 -35 147 -79z m5758 -981 l0
-319 -62 -34 c-227 -124 -490 -258 -516 -263 l-32 -6 0 313 0 314 143 77 c174
95 449 237 460 238 4 0 7 -144 7 -320z m1290 11 l0 -298 -162 -88 c-90 -48
-284 -153 -433 -232 -148 -80 -340 -182 -425 -228 -85 -45 -172 -90 -193 -98
l-37 -16 2 306 3 305 105 57 c698 379 1100 590 1123 591 16 0 17 -21 17 -299z
m0 -1015 c0 -53 -17 -67 -225 -176 -55 -29 -162 -86 -238 -127 -142 -77 -165
-82 -152 -30 10 37 20 44 225 158 102 56 223 124 270 151 97 55 120 59 120 24z"/>
<path d="M14909 9033 c-31 -5 -37 -22 -69 -198 -12 -66 -42 -219 -66 -339 -24
-120 -44 -227 -44 -237 0 -18 12 -19 190 -19 188 0 190 0 195 23 3 12 30 136
60 276 91 415 98 464 71 474 -8 3 -63 8 -122 12 -60 3 -127 7 -149 9 -22 2
-52 1 -66 -1z"/>
<path d="M15823 8483 c-72 -54 -198 -152 -280 -219 -82 -66 -163 -129 -181
-139 -18 -11 -32 -26 -32 -34 0 -8 16 -43 36 -79 20 -35 53 -103 73 -151 51
-121 54 -125 82 -118 13 4 71 44 129 90 58 45 188 145 288 221 101 77 188 149
194 161 15 34 -140 365 -172 365 -3 0 -65 -44 -137 -97z"/>
<path d="M13863 8319 c-78 -97 -213 -282 -213 -293 0 -5 23 -29 52 -55 29 -25
110 -100 181 -166 163 -151 216 -195 233 -195 8 0 48 51 89 113 42 61 100 147
130 189 l54 77 -47 44 c-154 145 -398 357 -409 357 -6 0 -38 -32 -70 -71z"/>
<path d="M13835 7151 c-82 -37 -172 -79 -200 -93 -27 -14 -79 -38 -115 -53
-138 -57 -210 -98 -216 -122 -6 -23 30 -335 42 -367 14 -35 45 -27 237 62 105
50 244 113 307 142 200 90 183 79 176 114 -3 17 -14 74 -25 126 -10 52 -22
124 -26 160 -7 74 -13 100 -23 100 -4 -1 -74 -31 -157 -69z"/>
<path d="M14200 6393 c-150 -366 -213 -529 -217 -561 -5 -30 -2 -33 38 -51 61
-27 275 -91 304 -91 29 0 32 5 80 140 21 58 82 217 136 354 54 136 97 252 94
256 -3 5 -29 16 -58 26 -28 9 -105 36 -170 60 -65 24 -122 44 -126 44 -5 0
-41 -80 -81 -177z"/>
<path d="M6906 6737 c-18 -13 -19 -36 -17 -388 1 -230 6 -378 12 -385 14 -17
127 -83 228 -134 47 -23 147 -77 223 -120 185 -105 226 -112 254 -44 18 43 21
652 3 702 -13 37 -32 49 -348 222 -222 121 -301 160 -325 160 -7 0 -20 -6 -30
-13z"/>
</g>
</svg>
